<mxfile host="app.diagrams.net" modified="2022-04-09T23:19:25.550Z" agent="5.0 (Windows NT 10.0; Win64; x64) AppleWebKit/537.36 (KHTML, like Gecko) Chrome/100.0.4896.75 Safari/537.36" etag="JgGjDvabVzFBN-Dvruqm" version="17.4.0" type="github">
  <diagram id="pDcTOSQ_MJme7bxq-KLP" name="Page-1">
    <mxGraphModel dx="1038" dy="547" grid="1" gridSize="10" guides="1" tooltips="1" connect="1" arrows="1" fold="1" page="1" pageScale="1" pageWidth="827" pageHeight="1169" math="0" shadow="0">
      <root>
        <mxCell id="0" />
        <mxCell id="1" parent="0" />
        <mxCell id="Mc_krjjgkNhKQVEosxgI-1" value="&lt;font style=&quot;font-size: 21px&quot;&gt;&lt;b&gt;Diagram 2&lt;/b&gt;&lt;br&gt;앱 구동&lt;br&gt;&lt;/font&gt;" style="text;html=1;align=center;verticalAlign=middle;resizable=0;points=[];autosize=1;strokeColor=none;fillColor=none;fontSize=13;" parent="1" vertex="1">
          <mxGeometry x="60" y="60" width="120" height="40" as="geometry" />
        </mxCell>
        <mxCell id="Mc_krjjgkNhKQVEosxgI-2" value="앱 메인화면" style="rounded=0;whiteSpace=wrap;html=1;fontSize=17;" parent="1" vertex="1">
          <mxGeometry x="490" y="180" width="110" height="50" as="geometry" />
        </mxCell>
        <mxCell id="Mc_krjjgkNhKQVEosxgI-7" value="" style="endArrow=classic;html=1;rounded=0;fontSize=17;entryX=0.5;entryY=0;entryDx=0;entryDy=0;exitX=0.5;exitY=1;exitDx=0;exitDy=0;" parent="1" source="Mc_krjjgkNhKQVEosxgI-2" edge="1">
          <mxGeometry width="50" height="50" relative="1" as="geometry">
            <mxPoint x="560" y="290" as="sourcePoint" />
            <mxPoint x="545" y="270" as="targetPoint" />
          </mxGeometry>
        </mxCell>
        <mxCell id="Mc_krjjgkNhKQVEosxgI-8" value="" style="endArrow=classic;html=1;rounded=0;fontSize=17;entryX=0.5;entryY=0;entryDx=0;entryDy=0;exitX=0.5;exitY=1;exitDx=0;exitDy=0;" parent="1" target="3q4-ErVGuZIJLskHHzQT-2" edge="1">
          <mxGeometry width="50" height="50" relative="1" as="geometry">
            <mxPoint x="545" y="330" as="sourcePoint" />
            <mxPoint x="545" y="380" as="targetPoint" />
          </mxGeometry>
        </mxCell>
        <mxCell id="Mc_krjjgkNhKQVEosxgI-9" value="" style="endArrow=classic;html=1;rounded=0;fontSize=17;entryX=0.5;entryY=0;entryDx=0;entryDy=0;exitX=0.5;exitY=1;exitDx=0;exitDy=0;" parent="1" target="3q4-ErVGuZIJLskHHzQT-3" edge="1">
          <mxGeometry width="50" height="50" relative="1" as="geometry">
            <mxPoint x="545" y="520" as="sourcePoint" />
            <mxPoint x="480" y="410" as="targetPoint" />
          </mxGeometry>
        </mxCell>
        <mxCell id="Mc_krjjgkNhKQVEosxgI-11" value="" style="shape=partialRectangle;whiteSpace=wrap;html=1;bottom=1;right=1;left=1;top=0;fillColor=none;routingCenterX=-0.5;fontSize=17;rotation=90;" parent="1" vertex="1">
          <mxGeometry x="313.91999999999996" y="520" width="42.18" height="119.38" as="geometry" />
        </mxCell>
        <mxCell id="Mc_krjjgkNhKQVEosxgI-12" value="블랙리스트" style="text;html=1;align=center;verticalAlign=middle;resizable=0;points=[];autosize=1;strokeColor=none;fillColor=none;fontSize=17;" parent="1" vertex="1">
          <mxGeometry x="285" y="564.6899999999998" width="100" height="30" as="geometry" />
        </mxCell>
        <mxCell id="Mc_krjjgkNhKQVEosxgI-13" value="" style="endArrow=classic;html=1;rounded=0;fontSize=17;entryX=0;entryY=0.5;entryDx=0;entryDy=0;exitX=0.5;exitY=0;exitDx=0;exitDy=0;" parent="1" source="Mc_krjjgkNhKQVEosxgI-11" edge="1">
          <mxGeometry width="50" height="50" relative="1" as="geometry">
            <mxPoint x="410" y="599.69" as="sourcePoint" />
            <mxPoint x="485" y="579.69" as="targetPoint" />
          </mxGeometry>
        </mxCell>
        <mxCell id="Mc_krjjgkNhKQVEosxgI-14" value="&lt;div style=&quot;font-size: 12px;&quot;&gt;블랙리스트&lt;/div&gt;&lt;div style=&quot;font-size: 12px;&quot;&gt;확인&lt;/div&gt;" style="html=1;whiteSpace=wrap;aspect=fixed;shape=isoRectangle;fontSize=12;align=center;" parent="1" vertex="1">
          <mxGeometry x="488.33" y="651.69" width="113.33" height="68" as="geometry" />
        </mxCell>
        <mxCell id="Mc_krjjgkNhKQVEosxgI-15" value="" style="endArrow=classic;html=1;rounded=0;fontSize=17;exitX=0.5;exitY=1;exitDx=0;exitDy=0;" parent="1" source="3q4-ErVGuZIJLskHHzQT-2" edge="1">
          <mxGeometry width="50" height="50" relative="1" as="geometry">
            <mxPoint x="545" y="470" as="sourcePoint" />
            <mxPoint x="544.9957142857143" y="460" as="targetPoint" />
          </mxGeometry>
        </mxCell>
        <mxCell id="Mc_krjjgkNhKQVEosxgI-16" value="" style="endArrow=classic;html=1;rounded=0;fontSize=17;exitX=0.5;exitY=1;exitDx=0;exitDy=0;" parent="1" target="Mc_krjjgkNhKQVEosxgI-14" edge="1">
          <mxGeometry width="50" height="50" relative="1" as="geometry">
            <mxPoint x="545" y="609.69" as="sourcePoint" />
            <mxPoint x="600" y="659.69" as="targetPoint" />
          </mxGeometry>
        </mxCell>
        <mxCell id="Mc_krjjgkNhKQVEosxgI-21" value="" style="endArrow=classic;html=1;rounded=0;fontSize=17;entryX=1;entryY=0.5;entryDx=0;entryDy=0;exitX=0;exitY=0.5;exitDx=0;exitDy=0;" parent="1" edge="1">
          <mxGeometry width="50" height="50" relative="1" as="geometry">
            <mxPoint x="330" y="719.69" as="sourcePoint" />
            <mxPoint x="270" y="719.69" as="targetPoint" />
          </mxGeometry>
        </mxCell>
        <mxCell id="Mc_krjjgkNhKQVEosxgI-22" value="" style="endArrow=classic;html=1;rounded=0;fontSize=17;exitX=0;exitY=0.5;exitDx=0;exitDy=0;entryX=0;entryY=0.5;entryDx=0;entryDy=0;edgeStyle=orthogonalEdgeStyle;" parent="1" source="3q4-ErVGuZIJLskHHzQT-5" target="Mc_krjjgkNhKQVEosxgI-2" edge="1">
          <mxGeometry width="50" height="50" relative="1" as="geometry">
            <mxPoint x="40" y="600" as="sourcePoint" />
            <mxPoint x="90" y="550" as="targetPoint" />
          </mxGeometry>
        </mxCell>
        <mxCell id="Mc_krjjgkNhKQVEosxgI-27" value="좌석이 200석&lt;br style=&quot;font-size: 13px;&quot;&gt;이상 찼나?" style="html=1;whiteSpace=wrap;aspect=fixed;shape=isoRectangle;fontSize=13;" parent="1" vertex="1">
          <mxGeometry x="580" y="749.69" width="140" height="84" as="geometry" />
        </mxCell>
        <mxCell id="Mc_krjjgkNhKQVEosxgI-28" value="" style="endArrow=classic;html=1;rounded=0;fontSize=17;entryX=1;entryY=0.5;entryDx=0;entryDy=0;exitX=0.502;exitY=0.984;exitDx=0;exitDy=0;exitPerimeter=0;" parent="1" target="3q4-ErVGuZIJLskHHzQT-4" edge="1">
          <mxGeometry width="50" height="50" relative="1" as="geometry">
            <mxPoint x="545.2216599999999" y="718.6020000000001" as="sourcePoint" />
            <mxPoint x="420" y="719.69" as="targetPoint" />
          </mxGeometry>
        </mxCell>
        <mxCell id="Mc_krjjgkNhKQVEosxgI-32" value="&amp;lt;&amp;lt;맞다&amp;gt;&amp;gt;" style="edgeLabel;html=1;align=center;verticalAlign=middle;resizable=0;points=[];fontSize=13;" parent="Mc_krjjgkNhKQVEosxgI-28" vertex="1" connectable="0">
          <mxGeometry x="-0.1659" relative="1" as="geometry">
            <mxPoint x="-13" y="-1" as="offset" />
          </mxGeometry>
        </mxCell>
        <mxCell id="Mc_krjjgkNhKQVEosxgI-31" value="" style="endArrow=classic;html=1;rounded=0;fontSize=17;exitX=0.503;exitY=0.978;exitDx=0;exitDy=0;exitPerimeter=0;edgeStyle=orthogonalEdgeStyle;entryX=0.5;entryY=0.017;entryDx=0;entryDy=0;entryPerimeter=0;" parent="1" source="Mc_krjjgkNhKQVEosxgI-14" target="Mc_krjjgkNhKQVEosxgI-27" edge="1">
          <mxGeometry width="50" height="50" relative="1" as="geometry">
            <mxPoint x="603.33" y="739.69" as="sourcePoint" />
            <mxPoint x="653.33" y="689.69" as="targetPoint" />
            <Array as="points">
              <mxPoint x="545" y="729.69" />
              <mxPoint x="650" y="729.69" />
            </Array>
          </mxGeometry>
        </mxCell>
        <mxCell id="Mc_krjjgkNhKQVEosxgI-33" value="&amp;lt;&amp;lt;아니다&amp;gt;&amp;gt;" style="edgeLabel;html=1;align=center;verticalAlign=middle;resizable=0;points=[];fontSize=13;" parent="Mc_krjjgkNhKQVEosxgI-31" vertex="1" connectable="0">
          <mxGeometry x="-0.2434" relative="1" as="geometry">
            <mxPoint x="13" y="-1" as="offset" />
          </mxGeometry>
        </mxCell>
        <mxCell id="Mc_krjjgkNhKQVEosxgI-34" value="" style="shape=offPageConnector;whiteSpace=wrap;html=1;fontSize=13;rotation=-90;size=0.2857142857142857;" parent="1" vertex="1">
          <mxGeometry x="460" y="839.69" width="80" height="140" as="geometry" />
        </mxCell>
        <mxCell id="Mc_krjjgkNhKQVEosxgI-35" value="&quot;주변 식당&lt;br style=&quot;font-size: 17px;&quot;&gt;추천 팝업&quot;&lt;br style=&quot;font-size: 17px;&quot;&gt;출력" style="text;html=1;align=center;verticalAlign=middle;resizable=0;points=[];autosize=1;strokeColor=none;fillColor=none;fontSize=17;" parent="1" vertex="1">
          <mxGeometry x="440" y="874.69" width="90" height="70" as="geometry" />
        </mxCell>
        <mxCell id="Mc_krjjgkNhKQVEosxgI-36" value="" style="edgeStyle=orthogonalEdgeStyle;elbow=horizontal;endArrow=classic;html=1;rounded=0;fontSize=17;exitX=0.506;exitY=0.98;exitDx=0;exitDy=0;exitPerimeter=0;entryX=1;entryY=0.5;entryDx=0;entryDy=0;" parent="1" source="Mc_krjjgkNhKQVEosxgI-27" target="Mc_krjjgkNhKQVEosxgI-34" edge="1">
          <mxGeometry width="50" height="50" relative="1" as="geometry">
            <mxPoint x="440" y="829.69" as="sourcePoint" />
            <mxPoint x="480" y="849.69" as="targetPoint" />
          </mxGeometry>
        </mxCell>
        <mxCell id="Mc_krjjgkNhKQVEosxgI-37" value="Y" style="edgeLabel;html=1;align=center;verticalAlign=middle;resizable=0;points=[];fontSize=17;" parent="Mc_krjjgkNhKQVEosxgI-36" vertex="1" connectable="0">
          <mxGeometry x="-0.0742" relative="1" as="geometry">
            <mxPoint x="6" y="2" as="offset" />
          </mxGeometry>
        </mxCell>
        <mxCell id="Mc_krjjgkNhKQVEosxgI-38" value="" style="endArrow=classic;html=1;rounded=0;fontSize=17;entryX=0.5;entryY=0;entryDx=0;entryDy=0;exitX=0.501;exitY=0.98;exitDx=0;exitDy=0;exitPerimeter=0;" parent="1" source="Mc_krjjgkNhKQVEosxgI-27" edge="1">
          <mxGeometry width="50" height="50" relative="1" as="geometry">
            <mxPoint x="660" y="839.69" as="sourcePoint" />
            <mxPoint x="650" y="989.69" as="targetPoint" />
          </mxGeometry>
        </mxCell>
        <mxCell id="Mc_krjjgkNhKQVEosxgI-40" value="N" style="edgeLabel;html=1;align=center;verticalAlign=middle;resizable=0;points=[];fontSize=17;" parent="Mc_krjjgkNhKQVEosxgI-38" vertex="1" connectable="0">
          <mxGeometry x="-0.1258" y="1" relative="1" as="geometry">
            <mxPoint x="-1" y="9" as="offset" />
          </mxGeometry>
        </mxCell>
        <mxCell id="Mc_krjjgkNhKQVEosxgI-42" value="" style="html=1;shadow=0;dashed=0;align=center;verticalAlign=middle;shape=mxgraph.arrows2.arrow;dy=0;dx=0;notch=30;fontSize=17;" parent="1" vertex="1">
          <mxGeometry x="180" y="870" width="150" height="80" as="geometry" />
        </mxCell>
        <mxCell id="Mc_krjjgkNhKQVEosxgI-43" value="확인 버튼&lt;br&gt;누르면 사라짐" style="text;html=1;align=center;verticalAlign=middle;resizable=0;points=[];autosize=1;strokeColor=none;fillColor=none;fontSize=17;" parent="1" vertex="1">
          <mxGeometry x="205" y="884.69" width="120" height="50" as="geometry" />
        </mxCell>
        <mxCell id="Mc_krjjgkNhKQVEosxgI-46" value="" style="endArrow=block;dashed=1;endFill=0;endSize=12;html=1;rounded=0;fontSize=17;exitX=0.5;exitY=0;exitDx=0;exitDy=0;entryX=1;entryY=0.5;entryDx=0;entryDy=0;entryPerimeter=0;" parent="1" source="Mc_krjjgkNhKQVEosxgI-34" target="Mc_krjjgkNhKQVEosxgI-42" edge="1">
          <mxGeometry width="160" relative="1" as="geometry">
            <mxPoint x="270" y="1010" as="sourcePoint" />
            <mxPoint x="430" y="1010" as="targetPoint" />
          </mxGeometry>
        </mxCell>
        <mxCell id="3q4-ErVGuZIJLskHHzQT-6" value="" style="edgeStyle=orthogonalEdgeStyle;rounded=0;orthogonalLoop=1;jettySize=auto;html=1;fontSize=17;entryX=0.5;entryY=0;entryDx=0;entryDy=0;" edge="1" parent="1" source="3q4-ErVGuZIJLskHHzQT-1" target="3q4-ErVGuZIJLskHHzQT-2">
          <mxGeometry relative="1" as="geometry" />
        </mxCell>
        <mxCell id="3q4-ErVGuZIJLskHHzQT-1" value="&lt;font style=&quot;font-size: 17px&quot;&gt;예약 버튼 누름&lt;/font&gt;" style="rounded=1;whiteSpace=wrap;html=1;labelBackgroundColor=#ffffff;" vertex="1" parent="1">
          <mxGeometry x="484.99" y="270" width="120" height="60" as="geometry" />
        </mxCell>
        <mxCell id="3q4-ErVGuZIJLskHHzQT-2" value="&lt;font style=&quot;font-size: 17px&quot;&gt;예약 정보 기입&lt;/font&gt;" style="rounded=1;whiteSpace=wrap;html=1;labelBackgroundColor=#ffffff;fontSize=15;" vertex="1" parent="1">
          <mxGeometry x="484.99" y="360" width="120" height="60" as="geometry" />
        </mxCell>
        <mxCell id="3q4-ErVGuZIJLskHHzQT-3" value="정보 비교" style="rounded=1;whiteSpace=wrap;html=1;labelBackgroundColor=#ffffff;fontSize=17;" vertex="1" parent="1">
          <mxGeometry x="485" y="549.69" width="120" height="60" as="geometry" />
        </mxCell>
        <mxCell id="3q4-ErVGuZIJLskHHzQT-4" value="&quot;예약할 수 &lt;br&gt;없습니다&quot; &lt;br&gt;출력" style="rounded=1;whiteSpace=wrap;html=1;labelBackgroundColor=#ffffff;fontSize=17;" vertex="1" parent="1">
          <mxGeometry x="301" y="679.85" width="120" height="79.69" as="geometry" />
        </mxCell>
        <mxCell id="3q4-ErVGuZIJLskHHzQT-5" value="메인으로&lt;br&gt;강제 복귀" style="rounded=1;whiteSpace=wrap;html=1;labelBackgroundColor=#ffffff;fontSize=17;" vertex="1" parent="1">
          <mxGeometry x="150" y="689.69" width="120" height="60" as="geometry" />
        </mxCell>
        <mxCell id="3q4-ErVGuZIJLskHHzQT-7" value="개인 정보 동의" style="rounded=1;whiteSpace=wrap;html=1;labelBackgroundColor=#ffffff;fontSize=17;" vertex="1" parent="1">
          <mxGeometry x="485" y="460" width="120" height="60" as="geometry" />
        </mxCell>
        <mxCell id="3q4-ErVGuZIJLskHHzQT-8" value="" style="ellipse;html=1;shape=startState;fillColor=#000000;strokeColor=#ff0000;labelBackgroundColor=#ffffff;fontSize=17;" vertex="1" parent="1">
          <mxGeometry x="530" y="90" width="30" height="30" as="geometry" />
        </mxCell>
        <mxCell id="3q4-ErVGuZIJLskHHzQT-9" value="" style="edgeStyle=orthogonalEdgeStyle;html=1;verticalAlign=bottom;endArrow=open;endSize=8;strokeColor=#ff0000;rounded=0;fontSize=17;" edge="1" source="3q4-ErVGuZIJLskHHzQT-8" parent="1">
          <mxGeometry relative="1" as="geometry">
            <mxPoint x="545" y="180" as="targetPoint" />
          </mxGeometry>
        </mxCell>
        <mxCell id="3q4-ErVGuZIJLskHHzQT-10" value="" style="ellipse;html=1;shape=endState;fillColor=#000000;strokeColor=#ff0000;labelBackgroundColor=#ffffff;fontSize=17;" vertex="1" parent="1">
          <mxGeometry x="635" y="1080" width="30" height="30" as="geometry" />
        </mxCell>
        <mxCell id="3q4-ErVGuZIJLskHHzQT-11" value="" style="endArrow=classic;html=1;rounded=0;fontSize=17;exitX=0.5;exitY=1;exitDx=0;exitDy=0;entryX=0.5;entryY=0;entryDx=0;entryDy=0;" edge="1" parent="1" target="3q4-ErVGuZIJLskHHzQT-10">
          <mxGeometry width="50" height="50" relative="1" as="geometry">
            <mxPoint x="650" y="1049.69" as="sourcePoint" />
            <mxPoint x="554.9972368421052" y="661.69" as="targetPoint" />
          </mxGeometry>
        </mxCell>
        <mxCell id="3q4-ErVGuZIJLskHHzQT-12" value="" style="endArrow=classic;html=1;rounded=0;fontSize=17;exitX=-0.005;exitY=0.558;exitDx=0;exitDy=0;entryX=0;entryY=0.5;entryDx=0;entryDy=0;edgeStyle=orthogonalEdgeStyle;exitPerimeter=0;" edge="1" parent="1" source="Mc_krjjgkNhKQVEosxgI-43" target="Mc_krjjgkNhKQVEosxgI-2">
          <mxGeometry width="50" height="50" relative="1" as="geometry">
            <mxPoint x="160" y="729.69" as="sourcePoint" />
            <mxPoint x="500" y="215" as="targetPoint" />
            <Array as="points">
              <mxPoint x="70" y="913" />
              <mxPoint x="70" y="205" />
            </Array>
          </mxGeometry>
        </mxCell>
        <mxCell id="3q4-ErVGuZIJLskHHzQT-13" value="예약 완료&lt;br&gt;메시지 출력" style="rounded=1;whiteSpace=wrap;html=1;labelBackgroundColor=#ffffff;fontSize=17;" vertex="1" parent="1">
          <mxGeometry x="590" y="990" width="120" height="60" as="geometry" />
        </mxCell>
      </root>
    </mxGraphModel>
  </diagram>
</mxfile>
